<svg xmlns="http://www.w3.org/2000/svg" viewBox="0 0 80 80" width="80" height="80">
  <circle cx="40" cy="40" r="40" fill="#F0E8F8"/>
  <!-- corpo -->
  <ellipse cx="40" cy="72" rx="22" ry="14" fill="#9B6BB5"/>
  <!-- pescoço -->
  <rect x="34" y="54" width="12" height="10" rx="4" fill="#F0C8A0"/>
  <!-- rosto oval -->
  <ellipse cx="40" cy="39" rx="17" ry="19" fill="#F0C8A0"/>
  <!-- cabelo preso — base escura nas laterais -->
  <rect x="23" y="24" width="6" height="18" rx="3" fill="#1C1008"/>
  <rect x="51" y="24" width="6" height="18" rx="3" fill="#1C1008"/>
  <!-- coque no topo -->
  <ellipse cx="40" cy="19" rx="10" ry="8" fill="#1C1008"/>
  <ellipse cx="40" cy="14" rx="7" ry="5" fill="#2C1A10"/>
  <!-- topo cabelo cobrindo fronte -->
  <ellipse cx="40" cy="24" rx="17" ry="7" fill="#1C1008"/>
  <!-- óculos (educadora) -->
  <rect x="25" y="33" width="11" height="8" rx="3" fill="none" stroke="#6B4E8A" stroke-width="1.8"/>
  <rect x="39" y="33" width="11" height="8" rx="3" fill="none" stroke="#6B4E8A" stroke-width="1.8"/>
  <line x1="36" y1="37" x2="39" y2="37" stroke="#6B4E8A" stroke-width="1.8"/>
  <line x1="25" y1="37" x2="22" y2="36" stroke="#6B4E8A" stroke-width="1.5"/>
  <line x1="50" y1="37" x2="53" y2="36" stroke="#6B4E8A" stroke-width="1.5"/>
  <!-- olhos atrás dos óculos -->
  <circle cx="30.5" cy="37" r="2" fill="#3D2A1A"/>
  <circle cx="44.5" cy="37" r="2" fill="#3D2A1A"/>
  <circle cx="31.2" cy="36.3" r=".6" fill="white"/>
  <circle cx="45.2" cy="36.3" r=".6" fill="white"/>
  <!-- sobrancelhas -->
  <path d="M26 32 Q30.5 30 35 31.5" stroke="#1C1008" stroke-width="1.5" fill="none" stroke-linecap="round"/>
  <path d="M40 31.5 Q44.5 30 49 32" stroke="#1C1008" stroke-width="1.5" fill="none" stroke-linecap="round"/>
  <!-- nariz delicado -->
  <path d="M39 43 Q40 46 41 43" stroke="#C8906A" stroke-width="1" fill="none"/>
  <!-- bochechas suaves -->
  <ellipse cx="27" cy="44" rx="5" ry="3" fill="#FFB0B0" opacity=".35"/>
  <ellipse cx="53" cy="44" rx="5" ry="3" fill="#FFB0B0" opacity=".35"/>
  <!-- sorriso gentil -->
  <path d="M32 49 Q40 55 48 49" stroke="#B06848" stroke-width="1.8" fill="none" stroke-linecap="round"/>
</svg>