<svg xmlns="http://www.w3.org/2000/svg" viewBox="0 0 80 80" width="80" height="80">
  <circle cx="40" cy="40" r="40" fill="#D4EAF7"/>
  <!-- corpo / camisa -->
  <ellipse cx="40" cy="72" rx="22" ry="14" fill="#4A7FC1"/>
  <!-- colarinho -->
  <path d="M32 62 L40 68 L48 62" fill="white" opacity=".9"/>
  <!-- pescoço -->
  <rect x="34" y="54" width="12" height="10" rx="4" fill="#C68642"/>
  <!-- rosto -->
  <ellipse cx="40" cy="38" rx="18" ry="20" fill="#C68642"/>
  <!-- barba sutil -->
  <ellipse cx="40" cy="50" rx="14" ry="7" fill="#8B5A2B" opacity=".3"/>
  <!-- cabelo curto -->
  <ellipse cx="40" cy="22" rx="18" ry="11" fill="#1A0A00"/>
  <rect x="22" y="22" width="6" height="10" rx="2" fill="#1A0A00"/>
  <rect x="52" y="22" width="6" height="10" rx="2" fill="#1A0A00"/>
  <!-- sobrancelhas grossas -->
  <path d="M27 30 Q32 27 38 29" stroke="#1A0A00" stroke-width="2.2" fill="none" stroke-linecap="round"/>
  <path d="M42 29 Q48 27 53 30" stroke="#1A0A00" stroke-width="2.2" fill="none" stroke-linecap="round"/>
  <!-- olhos -->
  <ellipse cx="33" cy="35" rx="4" ry="3.5" fill="white"/>
  <ellipse cx="47" cy="35" rx="4" ry="3.5" fill="white"/>
  <circle cx="33" cy="35" r="2.4" fill="#2C1810"/>
  <circle cx="47" cy="35" r="2.4" fill="#2C1810"/>
  <circle cx="34" cy="34" r=".7" fill="white"/>
  <circle cx="48" cy="34" r=".7" fill="white"/>
  <!-- nariz mais largo -->
  <path d="M38 39 Q37 43 40 44 Q43 43 42 39" stroke="#A06830" stroke-width="1.2" fill="none" stroke-linecap="round"/>
  <ellipse cx="37.5" cy="44" rx="2" ry="1.2" fill="#A06830" opacity=".3"/>
  <ellipse cx="42.5" cy="44" rx="2" ry="1.2" fill="#A06830" opacity=".3"/>
  <!-- sorriso fechado -->
  <path d="M33 48 Q40 53 47 48" stroke="#8B4513" stroke-width="2" fill="none" stroke-linecap="round"/>
</svg>